<?xml version="1.0" encoding="utf-8"?><svg xmlns="http://www.w3.org/2000/svg" xmlns:xlink="http://www.w3.org/1999/xlink"><symbol viewBox="0 0 24 24" id="arrow_down"><path d="M17.1 18.3c-.3-.3-.7-.3-.9-.1l-3.6 3.6V.6c0-.3-.2-.6-.6-.6-.3 0-.6.3-.6.6v21.3l-3.6-3.6c-.2-.2-.6-.2-.8 0l-.1.1c-.2.2-.2.6 0 .8l4.6 4.6c.1.1.3.2.5.2s.4-.1.5-.2l4.6-4.6c.2-.3.2-.7 0-.9z"/></symbol><symbol viewBox="0 0 24 24" id="caret_down"><path d="M12 16.8L22.9 5.9c.2-.2.7-.2.9 0 .2.2.2.7 0 .9L12.5 18.1c-.1.1-.3.2-.5.2s-.3-.1-.5-.2L.2 6.8c-.2-.2-.2-.7 0-.9.2-.2.7-.2.9 0L12 16.8z"/></symbol><symbol viewBox="0 0 24 24" id="envelop"><path d="M23.5 1.7H.3l-.1.1-.1.1v19.7c0 .3.2.6.5.6h23c.3 0 .5-.3.5-.6V2.3c-.1-.3-.3-.6-.6-.6zM11.9 13.9L1.8 2.8h20.3L11.9 13.9zM1 3.6l10.5 11.5c.2.2.5.2.7 0L23 3.5v17.7H1V3.6z"/></symbol><symbol viewBox="0 0 24 24" id="facebook"><path d="M13.9 24H9.4V12h-3V7.9h3V5.5c0-3.4.9-5.4 4.9-5.4h3.3v4.1h-2.1c-1.5 0-1.6.6-1.6 1.7V8h3.7l-.4 4h-3.3v12z"/></symbol><symbol viewBox="0 0 24 24" id="fav"><path d="M12 21.8c-.1 0-.2 0-.2-.1l-8.4-8.1c-.1-.1-.2-.2-.4-.3-.2-.2-.4-.4-.7-.8-.3-.5-.6-.9-.8-1.3-.3-.4-.5-.9-.7-1.5C.6 9.1.5 8.5.5 8c0-1.8.5-3.2 1.6-4.2 1-1 2.5-1.5 4.4-1.5.5 0 1 .1 1.5.3.5.2 1 .4 1.5.7.5.3.9.6 1.2.9.3.3.7.6 1 .9l.3.2.4-.3c.3-.3.6-.6 1-.9.3-.3.8-.6 1.2-.9.5-.3 1-.5 1.5-.7.5-.2 1-.3 1.5-.3 1.9 0 3.3.5 4.4 1.5 1 1 1.6 2.4 1.6 4.3 0 1.8-1 3.7-2.9 5.7l-8.3 8c-.2.1-.3.1-.4.1z"/><path d="M17.6 2.7c1.7 0 3.1.4 4 1.4C22.5 5 23 6.3 23 8c0 1.7-.9 3.5-2.8 5.3L12 21.2l-8.3-8c-.1-.1-.2-.1-.3-.3-.1-.1-.3-.3-.7-.8-.3-.4-.6-.8-.8-1.2-.2-.4-.4-.9-.6-1.4C1.1 9 1 8.5 1 8c0-1.7.5-3 1.4-3.9.9-.9 2.3-1.4 4-1.4.4 0 .9.1 1.4.2.5.2 1 .4 1.4.7.5.3.9.6 1.2.9.3.2.6.5.9.8l.7.7.7-.7c.3-.3.6-.6.9-.8.3-.3.7-.6 1.2-.9.4-.3.9-.5 1.4-.7.5-.1.9-.2 1.4-.2m0-1c-.6 0-1.1.1-1.7.3-.6.2-1.1.4-1.6.8-.5.3-.9.6-1.3.9-.4.3-.7.6-1 .9-.3-.3-.7-.6-1-.9-.4-.3-.8-.6-1.3-.9-.5-.3-1-.6-1.6-.8-.6-.2-1.1-.3-1.7-.3-2 0-3.6.6-4.7 1.7S0 6 0 8c0 .6.1 1.2.3 1.8.2.7.5 1.2.7 1.6.3.4.6.9.9 1.3s.6.7.7.9c.2.2.4.3.5.4l8.4 8.1c.2.2.4.2.6.2.2 0 .4-.1.6-.2l8.3-8C23 12 24 10 24 8s-.6-3.5-1.7-4.6c-1.1-1.1-2.7-1.7-4.7-1.7z"/></symbol><symbol viewBox="0 0 24 24" id="fav_off"><path d="M24 8c0-2-.6-3.5-1.7-4.6s-2.7-1.7-4.7-1.7c-.6 0-1.1.1-1.7.3s-1.1.4-1.6.8c-.5.3-.9.6-1.3.9-.4.3-.7.6-1 .9-.3-.3-.7-.6-1-.9s-.8-.6-1.3-.9c-.5-.3-1-.6-1.6-.8-.6-.2-1.1-.3-1.7-.3-2 0-3.6.6-4.7 1.7S0 6 0 8c0 .6.1 1.2.3 1.8.2.7.5 1.2.7 1.6s.6.9.9 1.3c.3.4.6.7.7.9.2.2.4.3.5.4l8.4 8.1c.2.2.4.2.6.2.2 0 .4-.1.6-.2l8.3-8C23 12 24 10 24 8zM12 21l-8.2-7.9s-.1-.1-.3-.2c-.1-.1-.3-.3-.7-.8-.3-.4-.6-.8-.8-1.2-.2-.4-.4-.9-.6-1.4-.1-.5-.2-1-.2-1.5 0-1.7.4-2.9 1.3-3.8.9-.9 2.2-1.3 3.9-1.3.4 0 .9.1 1.3.2.5.2.9.4 1.3.6.5.3.9.6 1.2.9.3.3.6.5.9.8l.9.9.8-.8c.3-.3.6-.6.9-.8.3-.3.7-.5 1.2-.9.4-.3.9-.5 1.3-.6.5-.2.9-.2 1.3-.2 1.7 0 3 .4 3.9 1.3.9.9 1.3 2.1 1.3 3.8 0 1.6-.9 3.4-2.7 5.2L12 21z"/></symbol><symbol viewBox="0 0 24 24" id="googleplus"><path d="M13.1 1.9H6.8C4 1.9 1.4 4 1.4 6.5 1.4 9 3.3 11 6.1 11h.6c-.2.4-.3.8-.3 1.2 0 .7.4 1.3.9 1.7H6.2c-3.5 0-6.2 2.2-6.2 4.5s2.9 3.7 6.4 3.7c4 0 6.2-2.3 6.2-4.5 0-1.8-.5-2.9-2.2-4.1-.6-.4-1.7-1.4-1.7-2 0-.7.2-1 1.2-1.8s1.8-2 1.8-3.3c0-1.6-.7-3.1-2-3.6h2l1.4-.9zm-2.2 15.3c.1.2.1.4.1.6 0 1.8-1.2 3.3-4.6 3.3-2.4 0-4.2-1.5-4.2-3.4 0-1.8 2.2-3.3 4.6-3.3.6 0 1.1.1 1.6.2 1.3 1.1 2.2 1.6 2.5 2.6zM7 10.4c-1.6 0-3.2-1.8-3.4-3.9-.3-2.2.8-3.8 2.4-3.7s3.2 1.8 3.4 3.9c.4 2.1-.7 3.7-2.4 3.7zm12.5-4V1.9H18v4.5h-4.5v1.5H18v4.5h1.5V7.9H24V6.4h-4.5z"/></symbol><symbol viewBox="0 0 24 24" id="hamburger"><path d="M0 5.8c0-.3.3-.6.6-.6h22.7c.3 0 .6.3.6.6s-.3.6-.6.6H.6c-.3 0-.6-.3-.6-.6zM0 12c0-.3.3-.6.6-.6h22.7c.3 0 .6.3.6.6s-.3.6-.6.6H.6c-.3 0-.6-.3-.6-.6zM0 18.2c0-.3.3-.6.6-.6h22.7c.3 0 .6.3.6.6s-.3.6-.6.6H.6c-.3.1-.6-.2-.6-.6z"/></symbol><symbol viewBox="0 0 24 24" id="location"><g><path d="M12 10.6c1.9 0 3.5-1.6 3.5-3.5S13.9 3.6 12 3.6 8.5 5.2 8.5 7.1s1.6 3.5 3.5 3.5zm0-5.8c1.3 0 2.3 1 2.3 2.3 0 1.2-1 2.3-2.3 2.3-1.2 0-2.3-1-2.3-2.3 0-1.2 1.1-2.3 2.3-2.3z"/><path d="M11.3 23.6c.1.2.3.4.6.4.2 0 .5-.1.6-.4 0 0 6.3-13.3 6.2-13.3.4-.9.6-1.9.6-2.9C19.4 3.3 16.1 0 12 0S4.6 3.3 4.6 7.4c0 1 .2 1.9.5 2.7M12 1.2c3.4 0 6.2 2.8 6.2 6.2 0 1-.4 2-.8 2.9l-5.5 11.6-5.1-11-.4-.9c-.3-.8-.6-1.7-.6-2.6C5.8 4 8.6 1.2 12 1.2z"/></g></symbol><symbol viewBox="0 0 24 24" id="pencil"><g><path d="M0 24v-9.4V2.3h16.7l-.5.5-.5.5H1V23H18.7v-.2-.2-5.9-5.9-.3c0-.1.1-.2.2-.3.1-.1.3-.2.4-.4l.4-.4V24H0z"/><path d="M21.4 3.2c.1.1.2.3.4.4.1.1.3.3.4.5 0 0-.1 0-.1.1-.1 0-.1 0-.1.1-1.9 1.9-3.8 3.8-5.7 5.6s-3.8 3.8-5.7 5.6c-.1.1-.1.1-.2.1s-.2.1-.3.1H8.3v-1-1c0-.1 0-.1.1-.2 0-.1.1-.1.1-.2L12.8 9l4.3-4.3 1.5-1.5 1.5-1.5c.1.1.2.3.4.4.1.1.2.2.3.4l-5.6 5.6-5.6 5.6.3.3.3.3 5.6-5.6s3.8-3.7 5.6-5.5zM23 3.1c-.4-.4-.7-.7-1.1-1s-.7-.7-1-1.1l.4-.4c.1-.1.3-.3.5-.4.1-.2.3-.2.5-.2s.4.1.6.3l.4.4.4.4c.2.2.3.4.3.6 0 .2-.1.4-.2.6-.1.2-.3.3-.4.4-.1.2-.3.3-.4.4z"/></g></symbol><symbol viewBox="0 0 24 24" id="phone"><path d="M23.5 19l-3.7-3.7c-.7-.7-2-.7-2.7.1l-1.9 1.9c-.1-.1-.2-.1-.4-.2-1.2-.7-2.8-1.6-4.5-3.3-1.7-1.8-2.6-3.4-3.2-4.6-.1-.1-.2-.2-.2-.3l1.3-1.3.5-.6c.8-.8.8-2 0-2.7L5.1.5c-.7-.7-2-.7-2.7 0l-1 1.1c-.4.5-.7 1-.9 1.6-.2.5-.3 1-.4 1.5-.5 4.1 1.4 7.8 6.4 12.8 7 7 12.6 6.4 12.8 6.4.5-.1 1-.2 1.5-.4.6-.2 1.1-.5 1.5-.9l1.1-1c.8-.7.9-1.9.1-2.6zm-.9 1.9l-.5.5-.1.1c-.3.3-.8.7-1.5 1-.4.2-.8.3-1.3.3-.1 0-5.3.5-11.9-6.1C1.8 11.2.9 8 1.2 4.9c0-.4.2-.8.3-1.3.3-.7.7-1.3 1-1.5l.6-.6c.4-.4.9-.4 1.2-.1L8 5.1c.3.3.3.8 0 1.1L5.4 8.7l.2.3c.2.3.3.5.4.8.7 1.2 1.6 2.9 3.5 4.8 1.8 1.8 3.5 2.8 4.8 3.5.3.1.5.3.7.4l.4.2 2.5-2.5c.3-.3.8-.3 1.1-.1l3.7 3.7c.3.3.3.8-.1 1.1z"/></symbol><symbol viewBox="0 0 24 24" id="pinterest"><path d="M12 0C5.4 0 0 5.4 0 12s5.4 12 12 12 12-5.4 12-12S18.6 0 12 0zm1.2 16c-1.1-.1-1.5-.6-2.4-1.1-.5 2.5-1 4.8-2.7 6.1-.5-3.7.8-6.5 1.4-9.5-1-1.7.1-5.2 2.3-4.3 2.7 1.1-2.3 6.4 1 7.1 3.5.7 4.9-6 2.7-8.2-3.1-3.2-9.1-.1-8.4 4.5.2 1.1 1.3 1.4.5 3C5.6 13 5 11.4 5 9.3c.1-3.4 3.1-5.8 6.1-6.2 3.8-.4 7.3 1.4 7.8 4.9.5 4-1.7 8.3-5.7 8z"/></symbol><symbol viewBox="0 0 24 24" id="search"><path d="M23.8 21.3L17 15h-.1c.1-.1.2-.3.3-.4 2.6-3.7 1.4-8.9-2.7-11.4-3.9-2.4-9-1.8-12 1.2-3.2 3.1-3.3 7.8-.4 11.1 1.5 1.6 3.4 2.7 5.7 3 2.9.4 5.6-.3 7.9-2.1 0 0 .3-.2.5-.5l6.8 6.2c.3.2.7.2.9 0 .2-.2.2-.6-.1-.8zM10 17.7c-4.6.3-8.6-2.8-9-6.9-.3-4.2 3.1-7.9 7.8-8.2 4.5-.3 8.7 2.9 8.9 7.1.3 3.9-3.1 7.7-7.7 8z"/></symbol><symbol viewBox="0 0 24 24" id="twitter"><path d="M24 4.6c-.9.4-1.8.7-2.8.8 1-.6 1.8-1.6 2.2-2.7-1 .6-2 1-3.1 1.2-.9-1-2.2-1.6-3.6-1.6-2.7 0-4.9 2.2-4.9 4.9 0 .4 0 .8.1 1.1-4.2-.2-7.8-2.2-10.2-5.2-.4.8-.7 1.6-.7 2.5 0 1.7.9 3.2 2.2 4.1-.8 0-1.6-.2-2.2-.6v.1c0 2.4 1.7 4.4 3.9 4.8-.4.1-.8.2-1.3.2-.3 0-.6 0-.9-.1.6 2 2.4 3.4 4.6 3.4-1.7 1.3-3.8 2.1-6.1 2.1-.4 0-.8 0-1.2-.1 2.2 1.4 4.8 2.2 7.6 2.2 9.1 0 14-7.5 14-14v-.6c.9-.7 1.7-1.6 2.4-2.5z"/></symbol><symbol viewBox="0 0 24 24" id="user"><g><path d="M12 13.2c3.4 0 6.2-2.8 6.2-6.2S15.4.8 12 .8 5.8 3.5 5.8 7s2.8 6.2 6.2 6.2zM24 22.5v-1.1c0-3.3-2.6-6-5.9-6.2H5.9c-3.3.2-5.9 2.9-5.9 6.2V22.6c0 .3.3.6.6.6h22.8c.3 0 .6-.2.6-.7 0 .1 0 .1 0 0z"/></g></symbol><symbol viewBox="0 0 24 24" id="world"><path d="M12.2 0h-.4C5.3 0 0 5.3 0 11.8v.4C0 18.7 5.3 24 11.8 24h.4C18.7 24 24 18.7 24 12.2v-.4C24 5.3 18.7 0 12.2 0zM4.8 3.4l-.4.3c.2 0 .8.3.9.5 0 0 0 .1-.1.2-.7.9-1.7 1.7-2.3 1.8h-.5c.7-1 1.5-2 2.4-2.8zM.9 12.7V12v-.8c.4.1.8.3.9.4l-.4.4c-.2.3-.2.3-.5.6v.1zM12 23.2c-5.5 0-10.1-4-11-9.3l.1.1.6-.7c.3-.3.3-.3.5-.6l.3-.4c.2-.2.2-.5.1-.8-.2-.6-1.2-.9-1.6-1 .2-1.1.5-2.2 1-3.2.1 0 .2.1.5.1.2 0 .4 0 .6-.1.9-.1 2.1-1.2 2.8-2.2.3-.5.3-.8.2-1.1-.1-.6-.5-.8-.8-.9C7.2 1.7 9.5.8 12 .8c6.2 0 11.2 5 11.2 11.2 0 .6-.1 1.3-.2 1.9-.1.1-.3.1-.6.2V14c0-.2-.1-.4-.2-.6-.3-.8-1-1.1-2-1.4-.7-.3-2.8-.7-3.9-.1-.4.2-.6.5-.7.9-.1.5 0 .9.3 1.1.5.4 1.3.2 1.8 0 0 .4-.3 1.1-.9 1.7-1.3 1.1-2.3 4.8-2.1 6.3v.1c-.3 0-1.1-.4-2.5-1.4-.4-.3-.6-1.5-.7-2.5-.2-1.5-.4-2.7-1.2-3.1-.3-.2-.8-.3-1.3-.4-1.4-.2-2.3-.5-2.6-1.7-.2-.7-.1-1.3.2-1.7.5-.7 1.5-1 2-1.1 1-.1 2.4.5 3.2.9.4.2.6.3.8.3 1.3.2 2.5-.8 2.9-1.4.1-.1.3-.3.2-.6.4-.1.7-.5.8-.9.2-.5.1-1-.2-1.2-.2-.2-.6-.3-1.3 0-1.1.6-1.3 1-1.5 1.5 0 .1-.1.2-.1.2s-.3 0-1.1-1c-.9-1.1-1.7-.8-2.2-.6-.4.3-.1.9-.7 1-.5-.2.3-.5 0-.8-.4-.4.4-.6.8-.6s.8-.3.9-.7c.1 0 .3.1.5.3.3.4.6.5 1 .5.5-.1.9-.5 1.2-.9.4-.6.2-1 .1-1.2-.2-.3-.6-.4-.9-.4.1-.1.3-.3.5-.4.5-.7 1-1 1.5-.9.4.1.7.2 1.4.2 1.1 0 2.5-1.4 2-1.1l-1-.2s-.5.5-1.2.5c-.3 0-1.5-.9-3.4.7-.9.8-1.2 1.3-1 1.8.1.1.3.4.9.3h.4s0 .1-.1.2c-.4.5-.5.6-.5.6s-.1 0-.2-.2c-.6-.6-1.3-.8-1.7-.5-.2.1-.2.3-.2.5-.2 0-.3 0-.4.1-.5.1-.8.1-.9.1-.2 0-.4 0-.6.2s0 .5 0 .6c.1.2.2.3.3.5l.1.1c-.4 0-.8.2-.8.6 0 .5.6.6 1 .7.4.1.8.1 1 0 .3-.2.4-.5.4-.8V8c.3-.1.8-.1 1.2.5.8.9 1.3 1.3 1.7 1.3.2 0 .5-.1.7-.2.2-.2.3-.4.4-.6.1-.2.2-.5 1-1 .1-.1.2-.1.3-.1 0 .2-.2.5-.3.6-.2 0-.5 0-.7.3-.1.2-.1.4 0 .6-.3.7-1.2 1.3-2 1.1-.1 0-.4-.1-.7-.3-1-.4-2.5-1.1-3.7-.9-1.1.2-2 .7-2.5 1.4-.4.7-.6 1.5-.3 2.4.4 1.9 2.1 2.2 3.3 2.4.4.1.8.1 1.1.3.3.2.5 1.5.7 2.4.2 1.3.4 2.6 1.1 3.1 1.6 1.2 2.5 1.5 3 1.6-1 .2-1.9.3-2.8.3zm3.3-.5c.2-.1.4-.4.3-.9-.1-1.2.8-4.6 1.8-5.5 1.1-.9 1.5-2.4 1.1-3-.2-.3-.5-.4-.8-.3l-.1.1c-.6.2-1 .3-1.1.2V13c0-.1.1-.2.3-.3.8-.4 2.5-.1 3.2.2.8.3 1.2.5 1.4.9.1.2.1.3.1.4.1.3.1.6.4.7.3.2.6 0 .7 0 .1 0 .1 0 .1-.1-.9 3.8-3.8 6.8-7.4 7.9z"/></symbol><symbol viewBox="0 0 24 24" id="youtube"><path d="M14.7 16.7v2.8c0 .6-.2.9-.5.9-.2 0-.4-.1-.6-.3v-4c.2-.2.4-.3.6-.3.3 0 .5.3.5.9zm4.5 0v.6H18v-.6c0-.6.2-.9.6-.9.4 0 .6.3.6.9zM6.3 13.8h1.4v-1.3H3.6v1.3H5v7.6h1.3v-7.6zm3.9 7.6h1.2v-6.6h-1.2v5.1c-.3.4-.5.6-.8.6-.2 0-.3-.1-.3-.3v-5.4H7.9V20c0 .4 0 .8.1 1 .1.3.4.5.8.5s.9-.3 1.4-.8v.7zm5.7-2v-2.6c0-.7 0-1.1-.1-1.3-.1-.5-.5-.8-1-.8-.4 0-.9.2-1.2.7v-2.9h-1.2v8.9h1.2v-.6c.4.5.8.7 1.2.7.5 0 .8-.2 1-.7.1-.3.1-.8.1-1.4zm4.5-.1v-.2h-1.2v.8c-.1.3-.2.5-.5.5-.4 0-.6-.3-.6-.9v-1.2h2.4v-1.4c0-.7-.1-1.2-.4-1.6-.3-.5-.8-.7-1.4-.7-.6 0-1.1.2-1.4.7-.2.3-.4.8-.4 1.6v2.3c0 .7.1 1.2.4 1.6.3.5.8.7 1.4.7.6 0 1.1-.2 1.4-.7.2-.2.3-.5.3-.7v-.8zM12.3 7V4.2c0-.6-.2-.9-.6-.9-.4 0-.6.3-.6.9V7c0 .6.2.9.6.9.4.1.6-.2.6-.9zm9.6 10.1c0 2.1-.1 3.7-.3 4.7-.1.5-.4 1-.8 1.3-.4.4-.8.6-1.4.6-1.6.2-4.1.3-7.4.3s-5.8-.1-7.4-.3c-.5-.1-1-.3-1.4-.6s-.7-.8-.8-1.3c-.2-1-.3-2.6-.3-4.7s.1-3.7.3-4.7c.1-.5.4-1 .8-1.3.4-.4.9-.6 1.4-.6 1.6-.2 4.1-.3 7.4-.3s5.8.1 7.4.3c.5.1 1 .3 1.4.6.4.4.7.8.8 1.3.2 1 .3 2.6.3 4.7zM8.6 0H10L8.3 5.3V9H7V5.3c-.2-.6-.4-1.6-.9-2.8-.3-.9-.6-1.7-.8-2.5h1.4l1 3.5.9-3.5zm4.9 4.5v2.3c0 .7-.1 1.3-.4 1.6-.3.5-.8.7-1.4.7-.6 0-1.1-.2-1.4-.7-.2-.4-.4-.9-.4-1.6V4.5c0-.7.1-1.2.4-1.6.3-.5.8-.7 1.4-.7.6 0 1.1.2 1.4.7.3.3.4.8.4 1.6zM18 2.3V9h-1.2v-.8c-.5.6-.9.8-1.4.8-.4 0-.7-.2-.8-.5-.1-.2-.1-.5-.1-1V2.3h1.2v5.4c.1.2.2.3.3.3.2 0 .5-.2.8-.6V2.3H18z"/></symbol></svg>