<?xml version="1.0" encoding="utf-8"?>
<!-- Generator: Adobe Illustrator 19.0.1, SVG Export Plug-In . SVG Version: 6.00 Build 0)  -->
<svg version="1.1" id="Capa_1" xmlns="http://www.w3.org/2000/svg" xmlns:xlink="http://www.w3.org/1999/xlink" x="0px" y="0px"
	 viewBox="-282 405.9 30 30" style="enable-background:new -282 405.9 30 30;" xml:space="preserve">
<style type="text/css">
	.st0{clip-path:url(#SVGID_2_);}
	.st1{clip-path:url(#SVGID_4_);fill:#575656;}
</style>
<g>
	<g>
		<defs>
			<rect id="SVGID_1_" x="-282" y="405.9" width="30" height="30"/>
		</defs>
		<clipPath id="SVGID_2_">
			<use xlink:href="#SVGID_1_"  style="overflow:visible;"/>
		</clipPath>
		<g class="st0">
			<defs>
				<rect id="SVGID_3_" x="-282" y="405.9" width="30" height="30"/>
			</defs>
			<clipPath id="SVGID_4_">
				<use xlink:href="#SVGID_3_"  style="overflow:visible;"/>
			</clipPath>
			<path class="st1" d="M-260.6,428.8L-260.6,428.8c-0.4-0.4-0.8-0.4-1.1-0.1l-4.5,4.5v-26.6c0-0.4-0.3-0.7-0.7-0.7h-0.1
				c-0.4,0-0.7,0.3-0.7,0.7v26.6l-4.5-4.5c-0.3-0.3-0.7-0.3-1,0l-0.1,0.1c-0.3,0.3-0.3,0.7,0,1l5.8,5.8c0.1,0.2,0.3,0.3,0.6,0.3h0.1
				c0.2,0,0.4-0.1,0.6-0.3l5.8-5.8C-260.3,429.5-260.3,429.1-260.6,428.8"/>
		</g>
	</g>
</g>
</svg>
