<?xml version="1.0" encoding="utf-8"?>
<!-- Generator: Adobe Illustrator 19.0.1, SVG Export Plug-In . SVG Version: 6.00 Build 0)  -->
<svg version="1.1" id="Capa_1" xmlns="http://www.w3.org/2000/svg" xmlns:xlink="http://www.w3.org/1999/xlink" x="0px" y="0px"
	 viewBox="0 0 30 30" style="enable-background:new 0 0 30 30;" xml:space="preserve">
<style type="text/css">
	.st0{clip-path:url(#SVGID_2_);}
	.st1{clip-path:url(#SVGID_4_);}
	.st2{clip-path:url(#SVGID_6_);}
	.st3{clip-path:url(#SVGID_8_);}
	.st4{clip-path:url(#SVGID_10_);}
	.st5{clip-path:url(#SVGID_12_);}
</style>
<g>
	<g>
		<defs>
			<rect id="SVGID_9_" width="30" height="30"/>
		</defs>
		<clipPath id="SVGID_2_">
			<use xlink:href="#SVGID_9_"  style="overflow:visible;"/>
		</clipPath>
		<g class="st0">
			<defs>
				<rect id="SVGID_11_" width="30" height="30"/>
			</defs>
			<clipPath id="SVGID_4_">
				<use xlink:href="#SVGID_11_"  style="overflow:visible;"/>
			</clipPath>
			<path class="st1" d="M30,10c0-2.5-0.7-4.4-2.1-5.8c-1.4-1.4-3.4-2.1-5.9-2.1c-0.7,0-1.4,0.1-2.1,0.4c-0.7,0.2-1.4,0.6-2,1
				c-0.6,0.4-1.2,0.8-1.6,1.1C15.8,5,15.4,5.4,15,5.8c-0.4-0.4-0.8-0.8-1.3-1.1c-0.4-0.4-1-0.7-1.6-1.1c-0.6-0.4-1.3-0.7-2-1
				C9.4,2.3,8.7,2.1,8,2.1c-2.5,0-4.5,0.7-5.9,2.1C0.7,5.6,0,7.5,0,10c0,0.7,0.1,1.5,0.4,2.3c0.3,0.8,0.6,1.5,0.9,2
				c0.3,0.6,0.7,1.1,1.1,1.6c0.4,0.5,0.7,0.9,0.9,1.1c0.2,0.2,0.3,0.3,0.5,0.4l10.4,10.1c0.2,0.2,0.4,0.3,0.7,0.3
				c0.3,0,0.5-0.1,0.7-0.3l10.4-10C28.7,15,30,12.4,30,10 M15,26.2L4.8,16.4l-0.1,0c0,0-0.1-0.1-0.3-0.3c-0.1-0.1-0.3-0.3-0.8-1
				c-0.4-0.5-0.7-1-1-1.5c-0.3-0.5-0.5-1-0.8-1.7c-0.2-0.6-0.3-1.3-0.3-1.8c0-2.1,0.5-3.6,1.7-4.7C4.3,4.2,5.9,3.6,8,3.6
				c0.5,0,1.1,0.1,1.7,0.3c0.6,0.2,1.2,0.5,1.7,0.8c0.6,0.4,1.1,0.7,1.5,1.1c0.4,0.3,0.8,0.7,1.2,1l1,1l1-1c0.4-0.4,0.7-0.7,1.2-1
				c0.4-0.3,0.9-0.7,1.5-1.1c0.5-0.3,1.1-0.6,1.7-0.8c0.6-0.2,1.1-0.3,1.7-0.3c2.1,0,3.7,0.5,4.9,1.7c1.1,1.1,1.7,2.6,1.7,4.7
				c0,2.1-1.1,4.2-3.4,6.5L15,26.2z"/>
		</g>
	</g>
</g>
</svg>
