<?xml version="1.0" encoding="utf-8"?>
<!-- Generator: Adobe Illustrator 19.0.1, SVG Export Plug-In . SVG Version: 6.00 Build 0)  -->
<svg version="1.1" id="Capa_1" xmlns="http://www.w3.org/2000/svg" xmlns:xlink="http://www.w3.org/1999/xlink" x="0px" y="0px"
	 viewBox="0 0 30 30" style="enable-background:new 0 0 30 30;" xml:space="preserve">
<style type="text/css">
	.st0{clip-path:url(#SVGID_2_);}
	.st1{clip-path:url(#SVGID_4_);}
</style>
<g>
	<g>
		<defs>
			<rect id="SVGID_1_" width="30" height="30"/>
		</defs>
		<clipPath id="SVGID_2_">
			<use xlink:href="#SVGID_1_"  style="overflow:visible;"/>
		</clipPath>
		<g class="st0">
			<defs>
				<rect id="SVGID_3_" width="30" height="30"/>
			</defs>
			<clipPath id="SVGID_4_">
				<use xlink:href="#SVGID_3_"  style="overflow:visible;"/>
			</clipPath>
			<path class="st1" d="M29.3,23.7l-4.6-4.6c-0.9-0.9-2.4-0.9-3.4,0.1L19,21.5c-0.1-0.1-0.3-0.2-0.5-0.3c-1.5-0.8-3.5-1.9-5.6-4.1
				C10.7,15,9.6,13,8.8,11.5c-0.1-0.2-0.2-0.3-0.3-0.4l1.6-1.6l0.8-0.8c1-1,1-2.5,0.1-3.4L6.3,0.7C5.4-0.2,3.9-0.2,2.9,0.8L1.6,2.1
				l0,0C1.2,2.7,0.8,3.3,0.6,4C0.3,4.7,0.2,5.3,0.1,5.9c-0.6,5.1,1.7,9.7,8,16c8.7,8.7,15.7,8,16,8c0.7-0.1,1.3-0.2,1.9-0.5
				c0.7-0.3,1.3-0.6,1.9-1.1l0,0l1.3-1.3C30.2,26.2,30.2,24.6,29.3,23.7 M28.2,26.1l-0.6,0.6l-0.2,0.2c-0.4,0.4-1,0.8-1.9,1.2
				c-0.5,0.2-1,0.3-1.6,0.4c-0.1,0-6.7,0.6-14.8-7.6C2.2,14,1.1,10,1.5,6.1c0.1-0.5,0.2-1,0.4-1.6C2.3,3.6,2.8,3,3.1,2.6L4,1.8
				c0.4-0.4,1-0.4,1.3-0.1l4.6,4.6c0.4,0.4,0.3,1-0.1,1.3l-3.1,3.1L7,11.3c0.2,0.3,0.3,0.6,0.5,0.9c0.9,1.6,2,3.7,4.3,5.9
				c2.3,2.3,4.4,3.4,5.9,4.3c0.3,0.2,0.6,0.4,0.9,0.5l0.5,0.3l3.1-3.1c0.4-0.4,1-0.4,1.4-0.1l4.6,4.6C28.7,25.1,28.6,25.7,28.2,26.1
				"/>
		</g>
	</g>
</g>
</svg>
